<svg preserveAspectRatio="none" overflow="visible" style="display: block;" width="44" height="44" viewBox="0 0 44 44" fill="none" xmlns="http://www.w3.org/2000/svg">
<g id="map">
<path id="Vector" d="M16.5 5.9312C15.9311 5.9312 15.3699 6.06359 14.861 6.31791L6.51384 10.4924C6.20936 10.6446 5.95325 10.8785 5.77418 11.1679C5.59512 11.4574 5.50019 11.791 5.50001 12.1314V35.5302C5.49923 35.8431 5.57853 36.1509 5.73036 36.4245C5.88218 36.698 6.10148 36.9281 6.36739 37.093C6.63329 37.2578 6.93695 37.3519 7.24947 37.3662C7.562 37.3805 7.87298 37.3146 8.15284 37.1747L14.861 33.8197C15.3699 33.5654 15.9311 33.433 16.5 33.433C17.0689 33.433 17.6301 33.5654 18.139 33.8197L25.861 37.6807C26.3699 37.9351 26.9311 38.0674 27.5 38.0674C28.0689 38.0674 28.6301 37.9351 29.139 37.6807L37.4862 33.5062C37.7907 33.3541 38.0468 33.1202 38.2258 32.8307C38.4049 32.5412 38.4998 32.2076 38.5 31.8672V8.46657C38.5005 8.15388 38.4209 7.84627 38.269 7.57297C38.117 7.29968 37.8977 7.0698 37.6318 6.90518C37.366 6.74056 37.0624 6.64668 36.7501 6.63245C36.4377 6.61823 36.1269 6.68413 35.8472 6.82391L29.139 10.1789C28.6301 10.4332 28.0689 10.5656 27.5 10.5656C26.9311 10.5656 26.3699 10.4332 25.861 10.1789L18.139 6.31791C17.6301 6.06359 17.0689 5.9312 16.5 5.9312ZM27.5 10.5656L27.5 38.0647M16.5 5.9312L16.5 33.4312" stroke="#68806C" stroke-width="2" stroke-linecap="round"/>
</g>
</svg>
